<?xml version="1.0" encoding="UTF-8" standalone="no"?><svg xmlns="http://www.w3.org/2000/svg" xmlns:xlink="http://www.w3.org/1999/xlink" contentScriptType="application/ecmascript" contentStyleType="text/css" height="1297px" preserveAspectRatio="none" style="width:2311px;height:1297px;" version="1.1" viewBox="0 0 2311 1297" width="2311px" zoomAndPan="magnify"><defs><filter height="300%" id="f1789v0602rezm" width="300%" x="-1" y="-1"><feGaussianBlur result="blurOut" stdDeviation="2.0"/><feColorMatrix in="blurOut" result="blurOut2" type="matrix" values="0 0 0 0 0 0 0 0 0 0 0 0 0 0 0 0 0 0 .4 0"/><feOffset dx="4.0" dy="4.0" in="blurOut2" result="blurOut3"/><feBlend in="SourceGraphic" in2="blurOut3" mode="normal"/></filter></defs><g><rect fill="#FFFFFF" filter="url(#f1789v0602rezm)" height="1095.9141" style="stroke: #A80036; stroke-width: 1.0;" width="10" x="342" y="96.2969"/><rect fill="#FFFFFF" filter="url(#f1789v0602rezm)" height="1045.6484" style="stroke: #A80036; stroke-width: 1.0;" width="10" x="638" y="146.5625"/><rect fill="#FFFFFF" filter="url(#f1789v0602rezm)" height="980.3828" style="stroke: #A80036; stroke-width: 1.0;" width="10" x="923" y="175.6953"/><rect fill="#FFFFFF" filter="url(#f1789v0602rezm)" height="58.2656" style="stroke: #A80036; stroke-width: 1.0;" width="10" x="1207" y="263.0938"/><rect fill="#FFFFFF" filter="url(#f1789v0602rezm)" height="179.7969" style="stroke: #A80036; stroke-width: 1.0;" width="10" x="1319.5" y="445.8906"/><rect fill="#FFFFFF" filter="url(#f1789v0602rezm)" height="349.5938" style="stroke: #A80036; stroke-width: 1.0;" width="10" x="1442" y="742.2188"/><rect fill="#FFFFFF" filter="url(#f1789v0602rezm)" height="262.1953" style="stroke: #A80036; stroke-width: 1.0;" width="10" x="1718" y="800.4844"/><rect fill="#FFFFFF" filter="url(#f1789v0602rezm)" height="58.2656" style="stroke: #A80036; stroke-width: 1.0;" width="10" x="2260" y="946.1484"/><line style="stroke: #A80036; stroke-width: 1.0; stroke-dasharray: 5.0,5.0;" x1="34" x2="34" y1="86.2969" y2="1210.2109"/><line style="stroke: #A80036; stroke-width: 1.0; stroke-dasharray: 5.0,5.0;" x1="346.5" x2="346.5" y1="86.2969" y2="1210.2109"/><line style="stroke: #A80036; stroke-width: 1.0; stroke-dasharray: 5.0,5.0;" x1="642.5" x2="642.5" y1="86.2969" y2="1210.2109"/><line style="stroke: #A80036; stroke-width: 1.0; stroke-dasharray: 5.0,5.0;" x1="928" x2="928" y1="86.2969" y2="1210.2109"/><line style="stroke: #A80036; stroke-width: 1.0; stroke-dasharray: 5.0,5.0;" x1="1212" x2="1212" y1="86.2969" y2="1210.2109"/><line style="stroke: #A80036; stroke-width: 1.0; stroke-dasharray: 5.0,5.0;" x1="1324" x2="1324" y1="86.2969" y2="1210.2109"/><line style="stroke: #A80036; stroke-width: 1.0; stroke-dasharray: 5.0,5.0;" x1="1447" x2="1447" y1="86.2969" y2="1210.2109"/><line style="stroke: #A80036; stroke-width: 1.0; stroke-dasharray: 5.0,5.0;" x1="1722.5" x2="1722.5" y1="86.2969" y2="1210.2109"/><line style="stroke: #A80036; stroke-width: 1.0; stroke-dasharray: 5.0,5.0;" x1="1993.5" x2="1993.5" y1="86.2969" y2="1210.2109"/><line style="stroke: #A80036; stroke-width: 1.0; stroke-dasharray: 5.0,5.0;" x1="2265" x2="2265" y1="86.2969" y2="1210.2109"/><text fill="#000000" font-family="sans-serif" font-size="14" lengthAdjust="spacingAndGlyphs" textLength="46" x="8" y="82.9951">cliente</text><ellipse cx="34" cy="13" fill="#FEFECE" filter="url(#f1789v0602rezm)" rx="8" ry="8" style="stroke: #A80036; stroke-width: 2.0;"/><path d="M34,21 L34,48 M21,29 L47,29 M34,48 L21,63 M34,48 L47,63 " fill="none" filter="url(#f1789v0602rezm)" style="stroke: #A80036; stroke-width: 2.0;"/><text fill="#000000" font-family="sans-serif" font-size="14" lengthAdjust="spacingAndGlyphs" textLength="46" x="8" y="1222.2061">cliente</text><ellipse cx="34" cy="1235.5078" fill="#FEFECE" filter="url(#f1789v0602rezm)" rx="8" ry="8" style="stroke: #A80036; stroke-width: 2.0;"/><path d="M34,1243.5078 L34,1270.5078 M21,1251.5078 L47,1251.5078 M34,1270.5078 L21,1285.5078 M34,1270.5078 L47,1285.5078 " fill="none" filter="url(#f1789v0602rezm)" style="stroke: #A80036; stroke-width: 2.0;"/><rect fill="#FEFECE" filter="url(#f1789v0602rezm)" height="30.2969" style="stroke: #A80036; stroke-width: 1.5;" width="113" x="288.5" y="51"/><text fill="#000000" font-family="sans-serif" font-size="14" lengthAdjust="spacingAndGlyphs" textLength="99" x="295.5" y="70.9951">InterfazPedido</text><rect fill="#FEFECE" filter="url(#f1789v0602rezm)" height="30.2969" style="stroke: #A80036; stroke-width: 1.5;" width="113" x="288.5" y="1209.2109"/><text fill="#000000" font-family="sans-serif" font-size="14" lengthAdjust="spacingAndGlyphs" textLength="99" x="295.5" y="1229.2061">InterfazPedido</text><rect fill="#FEFECE" filter="url(#f1789v0602rezm)" height="30.2969" style="stroke: #A80036; stroke-width: 1.5;" width="143" x="569.5" y="51"/><text fill="#000000" font-family="sans-serif" font-size="14" lengthAdjust="spacingAndGlyphs" textLength="129" x="576.5" y="70.9951">ControladorPedido</text><rect fill="#FEFECE" filter="url(#f1789v0602rezm)" height="30.2969" style="stroke: #A80036; stroke-width: 1.5;" width="143" x="569.5" y="1209.2109"/><text fill="#000000" font-family="sans-serif" font-size="14" lengthAdjust="spacingAndGlyphs" textLength="129" x="576.5" y="1229.2061">ControladorPedido</text><rect fill="#FEFECE" filter="url(#f1789v0602rezm)" height="30.2969" style="stroke: #A80036; stroke-width: 1.5;" width="166" x="843" y="51"/><text fill="#000000" font-family="sans-serif" font-size="14" lengthAdjust="spacingAndGlyphs" textLength="152" x="850" y="70.9951">ControladorProductos</text><rect fill="#FEFECE" filter="url(#f1789v0602rezm)" height="30.2969" style="stroke: #A80036; stroke-width: 1.5;" width="166" x="843" y="1209.2109"/><text fill="#000000" font-family="sans-serif" font-size="14" lengthAdjust="spacingAndGlyphs" textLength="152" x="850" y="1229.2061">ControladorProductos</text><rect fill="#FEFECE" filter="url(#f1789v0602rezm)" height="30.2969" style="stroke: #A80036; stroke-width: 1.5;" width="110" x="1155" y="51"/><text fill="#000000" font-family="sans-serif" font-size="14" lengthAdjust="spacingAndGlyphs" textLength="96" x="1162" y="70.9951">InfoProductos</text><rect fill="#FEFECE" filter="url(#f1789v0602rezm)" height="30.2969" style="stroke: #A80036; stroke-width: 1.5;" width="110" x="1155" y="1209.2109"/><text fill="#000000" font-family="sans-serif" font-size="14" lengthAdjust="spacingAndGlyphs" textLength="96" x="1162" y="1229.2061">InfoProductos</text><rect fill="#FEFECE" filter="url(#f1789v0602rezm)" height="30.2969" style="stroke: #A80036; stroke-width: 1.5;" width="87" x="1279" y="51"/><text fill="#000000" font-family="sans-serif" font-size="14" lengthAdjust="spacingAndGlyphs" textLength="73" x="1286" y="70.9951">InfoPedido</text><rect fill="#FEFECE" filter="url(#f1789v0602rezm)" height="30.2969" style="stroke: #A80036; stroke-width: 1.5;" width="87" x="1279" y="1209.2109"/><text fill="#000000" font-family="sans-serif" font-size="14" lengthAdjust="spacingAndGlyphs" textLength="73" x="1286" y="1229.2061">InfoPedido</text><rect fill="#FEFECE" filter="url(#f1789v0602rezm)" height="30.2969" style="stroke: #A80036; stroke-width: 1.5;" width="130" x="1380" y="51"/><text fill="#000000" font-family="sans-serif" font-size="14" lengthAdjust="spacingAndGlyphs" textLength="116" x="1387" y="70.9951">ControladorPago</text><rect fill="#FEFECE" filter="url(#f1789v0602rezm)" height="30.2969" style="stroke: #A80036; stroke-width: 1.5;" width="130" x="1380" y="1209.2109"/><text fill="#000000" font-family="sans-serif" font-size="14" lengthAdjust="spacingAndGlyphs" textLength="116" x="1387" y="1229.2061">ControladorPago</text><rect fill="#FEFECE" filter="url(#f1789v0602rezm)" height="30.2969" style="stroke: #A80036; stroke-width: 1.5;" width="109" x="1666.5" y="51"/><text fill="#000000" font-family="sans-serif" font-size="14" lengthAdjust="spacingAndGlyphs" textLength="95" x="1673.5" y="70.9951">InterfazBanco</text><rect fill="#FEFECE" filter="url(#f1789v0602rezm)" height="30.2969" style="stroke: #A80036; stroke-width: 1.5;" width="109" x="1666.5" y="1209.2109"/><text fill="#000000" font-family="sans-serif" font-size="14" lengthAdjust="spacingAndGlyphs" textLength="95" x="1673.5" y="1229.2061">InterfazBanco</text><text fill="#000000" font-family="sans-serif" font-size="14" lengthAdjust="spacingAndGlyphs" textLength="43" x="1969.5" y="82.9951">banco</text><ellipse cx="1994" cy="13" fill="#FEFECE" filter="url(#f1789v0602rezm)" rx="8" ry="8" style="stroke: #A80036; stroke-width: 2.0;"/><path d="M1994,21 L1994,48 M1981,29 L2007,29 M1994,48 L1981,63 M1994,48 L2007,63 " fill="none" filter="url(#f1789v0602rezm)" style="stroke: #A80036; stroke-width: 2.0;"/><text fill="#000000" font-family="sans-serif" font-size="14" lengthAdjust="spacingAndGlyphs" textLength="43" x="1969.5" y="1222.2061">banco</text><ellipse cx="1994" cy="1235.5078" fill="#FEFECE" filter="url(#f1789v0602rezm)" rx="8" ry="8" style="stroke: #A80036; stroke-width: 2.0;"/><path d="M1994,1243.5078 L1994,1270.5078 M1981,1251.5078 L2007,1251.5078 M1994,1270.5078 L1981,1285.5078 M1994,1270.5078 L2007,1285.5078 " fill="none" filter="url(#f1789v0602rezm)" style="stroke: #A80036; stroke-width: 2.0;"/><rect fill="#FEFECE" filter="url(#f1789v0602rezm)" height="30.2969" style="stroke: #A80036; stroke-width: 1.5;" width="74" x="2226" y="51"/><text fill="#000000" font-family="sans-serif" font-size="14" lengthAdjust="spacingAndGlyphs" textLength="60" x="2233" y="70.9951">InfoPago</text><rect fill="#FEFECE" filter="url(#f1789v0602rezm)" height="30.2969" style="stroke: #A80036; stroke-width: 1.5;" width="74" x="2226" y="1209.2109"/><text fill="#000000" font-family="sans-serif" font-size="14" lengthAdjust="spacingAndGlyphs" textLength="60" x="2233" y="1229.2061">InfoPago</text><rect fill="#FFFFFF" filter="url(#f1789v0602rezm)" height="1095.9141" style="stroke: #A80036; stroke-width: 1.0;" width="10" x="342" y="96.2969"/><rect fill="#FFFFFF" filter="url(#f1789v0602rezm)" height="1045.6484" style="stroke: #A80036; stroke-width: 1.0;" width="10" x="638" y="146.5625"/><rect fill="#FFFFFF" filter="url(#f1789v0602rezm)" height="980.3828" style="stroke: #A80036; stroke-width: 1.0;" width="10" x="923" y="175.6953"/><rect fill="#FFFFFF" filter="url(#f1789v0602rezm)" height="58.2656" style="stroke: #A80036; stroke-width: 1.0;" width="10" x="1207" y="263.0938"/><rect fill="#FFFFFF" filter="url(#f1789v0602rezm)" height="179.7969" style="stroke: #A80036; stroke-width: 1.0;" width="10" x="1319.5" y="445.8906"/><rect fill="#FFFFFF" filter="url(#f1789v0602rezm)" height="349.5938" style="stroke: #A80036; stroke-width: 1.0;" width="10" x="1442" y="742.2188"/><rect fill="#FFFFFF" filter="url(#f1789v0602rezm)" height="262.1953" style="stroke: #A80036; stroke-width: 1.0;" width="10" x="1718" y="800.4844"/><rect fill="#FFFFFF" filter="url(#f1789v0602rezm)" height="58.2656" style="stroke: #A80036; stroke-width: 1.0;" width="10" x="2260" y="946.1484"/><polygon fill="#A80036" points="330,113.4297,340,117.4297,330,121.4297,334,117.4297" style="stroke: #A80036; stroke-width: 1.0;"/><line style="stroke: #A80036; stroke-width: 1.0;" x1="34" x2="336" y1="117.4297" y2="117.4297"/><text fill="#000000" font-family="sans-serif" font-size="13" lengthAdjust="spacingAndGlyphs" textLength="113" x="41" y="112.3638">1. Realizar pedido</text><polygon fill="#A80036" points="626,142.5625,636,146.5625,626,150.5625,630,146.5625" style="stroke: #A80036; stroke-width: 1.0;"/><line style="stroke: #A80036; stroke-width: 1.0;" x1="352" x2="632" y1="146.5625" y2="146.5625"/><text fill="#000000" font-family="sans-serif" font-size="13" lengthAdjust="spacingAndGlyphs" textLength="108" x="359" y="141.4966">1.1 Iniciar pedido</text><polygon fill="#A80036" points="911,171.6953,921,175.6953,911,179.6953,915,175.6953" style="stroke: #A80036; stroke-width: 1.0;"/><line style="stroke: #A80036; stroke-width: 1.0;" x1="648" x2="917" y1="175.6953" y2="175.6953"/><text fill="#000000" font-family="sans-serif" font-size="13" lengthAdjust="spacingAndGlyphs" textLength="235" x="655" y="170.6294">1.1.2 Consultar productos existentes</text><polygon fill="#A80036" points="659,200.8281,649,204.8281,659,208.8281,655,204.8281" style="stroke: #A80036; stroke-width: 1.0;"/><line style="stroke: #A80036; stroke-width: 1.0; stroke-dasharray: 2.0,2.0;" x1="653" x2="922" y1="204.8281" y2="204.8281"/><text fill="#000000" font-family="sans-serif" font-size="13" lengthAdjust="spacingAndGlyphs" textLength="139" x="665" y="199.7622">1.1.3 Listar Productos</text><polygon fill="#A80036" points="330,229.9609,340,233.9609,330,237.9609,334,233.9609" style="stroke: #A80036; stroke-width: 1.0;"/><line style="stroke: #A80036; stroke-width: 1.0;" x1="34" x2="336" y1="233.9609" y2="233.9609"/><text fill="#000000" font-family="sans-serif" font-size="13" lengthAdjust="spacingAndGlyphs" textLength="151" x="41" y="228.895">2. Seleccionar Producto</text><polygon fill="#A80036" points="911,259.0938,921,263.0938,911,267.0938,915,263.0938" style="stroke: #A80036; stroke-width: 1.0;"/><line style="stroke: #A80036; stroke-width: 1.0;" x1="352" x2="917" y1="263.0938" y2="263.0938"/><text fill="#000000" font-family="sans-serif" font-size="13" lengthAdjust="spacingAndGlyphs" textLength="219" x="359" y="258.0278">2.1 Notifica selección del producto</text><polygon fill="#A80036" points="1195,288.2266,1205,292.2266,1195,296.2266,1199,292.2266" style="stroke: #A80036; stroke-width: 1.0;"/><line style="stroke: #A80036; stroke-width: 1.0;" x1="933" x2="1201" y1="292.2266" y2="292.2266"/><text fill="#000000" font-family="sans-serif" font-size="13" lengthAdjust="spacingAndGlyphs" textLength="216" x="940" y="287.1606">2.1.1 Consulta datos del producto</text><polygon fill="#A80036" points="944,317.3594,934,321.3594,944,325.3594,940,321.3594" style="stroke: #A80036; stroke-width: 1.0;"/><line style="stroke: #A80036; stroke-width: 1.0; stroke-dasharray: 2.0,2.0;" x1="938" x2="1211" y1="321.3594" y2="321.3594"/><text fill="#000000" font-family="sans-serif" font-size="13" lengthAdjust="spacingAndGlyphs" textLength="213" x="950" y="316.2935">2.1.2 Devuelve lista de productos</text><line style="stroke: #A80036; stroke-width: 2.0;" x1="1203" x2="1221" y1="312.3594" y2="330.3594"/><line style="stroke: #A80036; stroke-width: 2.0;" x1="1203" x2="1221" y1="330.3594" y2="312.3594"/><polygon fill="#A80036" points="363,346.4922,353,350.4922,363,354.4922,359,350.4922" style="stroke: #A80036; stroke-width: 1.0;"/><line style="stroke: #A80036; stroke-width: 1.0; stroke-dasharray: 2.0,2.0;" x1="357" x2="922" y1="350.4922" y2="350.4922"/><text fill="#000000" font-family="sans-serif" font-size="13" lengthAdjust="spacingAndGlyphs" textLength="186" x="369" y="345.4263">2.1.3 Mostrar datos producto</text><polygon fill="#A80036" points="330,375.625,340,379.625,330,383.625,334,379.625" style="stroke: #A80036; stroke-width: 1.0;"/><line style="stroke: #A80036; stroke-width: 1.0;" x1="34" x2="336" y1="379.625" y2="379.625"/><text fill="#000000" font-family="sans-serif" font-size="13" lengthAdjust="spacingAndGlyphs" textLength="140" x="41" y="374.5591">3. Confirmar producto</text><polygon fill="#A80036" points="911,404.7578,921,408.7578,911,412.7578,915,408.7578" style="stroke: #A80036; stroke-width: 1.0;"/><line style="stroke: #A80036; stroke-width: 1.0;" x1="352" x2="917" y1="408.7578" y2="408.7578"/><text fill="#000000" font-family="sans-serif" font-size="13" lengthAdjust="spacingAndGlyphs" textLength="281" x="359" y="403.6919">3.1 Consultar si el producto sigue disponible</text><line style="stroke: #A80036; stroke-width: 1.0; stroke-dasharray: 2.0,2.0;" x1="933" x2="980" y1="432.8906" y2="432.8906"/><line style="stroke: #A80036; stroke-width: 1.0; stroke-dasharray: 2.0,2.0;" x1="980" x2="980" y1="432.8906" y2="445.8906"/><line style="stroke: #A80036; stroke-width: 1.0; stroke-dasharray: 2.0,2.0;" x1="939" x2="980" y1="445.8906" y2="445.8906"/><polygon fill="#A80036" points="949,441.8906,939,445.8906,949,449.8906,945,445.8906" style="stroke: #A80036; stroke-width: 1.0;"/><text fill="#000000" font-family="sans-serif" font-size="13" lengthAdjust="spacingAndGlyphs" textLength="260" x="945" y="427.8247">3.1.2 Marca el producto como comprado</text><polygon fill="#A80036" points="1307.5,476.0234,1317.5,480.0234,1307.5,484.0234,1311.5,480.0234" style="stroke: #A80036; stroke-width: 1.0;"/><line style="stroke: #A80036; stroke-width: 1.0;" x1="933" x2="1313.5" y1="480.0234" y2="480.0234"/><text fill="#000000" font-family="sans-serif" font-size="13" lengthAdjust="spacingAndGlyphs" textLength="188" x="940" y="474.9575">3.2 Añadir producto al pedido</text><polygon fill="#A80036" points="330,505.1563,340,509.1563,330,513.1563,334,509.1563" style="stroke: #A80036; stroke-width: 1.0;"/><line style="stroke: #A80036; stroke-width: 1.0;" x1="34" x2="336" y1="509.1563" y2="509.1563"/><text fill="#000000" font-family="sans-serif" font-size="13" lengthAdjust="spacingAndGlyphs" textLength="284" x="41" y="504.0903">4.A Seguir comprando (vuelve al paso 1.1.2)</text><polygon fill="#A80036" points="330,534.2891,340,538.2891,330,542.2891,334,538.2891" style="stroke: #A80036; stroke-width: 1.0;"/><line style="stroke: #A80036; stroke-width: 1.0;" x1="34" x2="336" y1="538.2891" y2="538.2891"/><text fill="#000000" font-family="sans-serif" font-size="13" lengthAdjust="spacingAndGlyphs" textLength="160" x="41" y="533.2231">4.B Terminar de comprar</text><polygon fill="#A80036" points="626,563.4219,636,567.4219,626,571.4219,630,567.4219" style="stroke: #A80036; stroke-width: 1.0;"/><line style="stroke: #A80036; stroke-width: 1.0;" x1="352" x2="632" y1="567.4219" y2="567.4219"/><text fill="#000000" font-family="sans-serif" font-size="13" lengthAdjust="spacingAndGlyphs" textLength="214" x="359" y="562.356">4B.1 Notifica el final de la compra</text><polygon fill="#A80036" points="1307.5,592.5547,1317.5,596.5547,1307.5,600.5547,1311.5,596.5547" style="stroke: #A80036; stroke-width: 1.0;"/><line style="stroke: #A80036; stroke-width: 1.0;" x1="648" x2="1313.5" y1="596.5547" y2="596.5547"/><text fill="#000000" font-family="sans-serif" font-size="13" lengthAdjust="spacingAndGlyphs" textLength="211" x="655" y="591.4888">4B.1.1 Consulta datos del pedido</text><polygon fill="#A80036" points="659,621.6875,649,625.6875,659,629.6875,655,625.6875" style="stroke: #A80036; stroke-width: 1.0;"/><line style="stroke: #A80036; stroke-width: 1.0; stroke-dasharray: 2.0,2.0;" x1="653" x2="1323.5" y1="625.6875" y2="625.6875"/><text fill="#000000" font-family="sans-serif" font-size="13" lengthAdjust="spacingAndGlyphs" textLength="201" x="665" y="620.6216">4B.1.2 Devuelve info del pedido</text><line style="stroke: #A80036; stroke-width: 2.0;" x1="1315.5" x2="1333.5" y1="616.6875" y2="634.6875"/><line style="stroke: #A80036; stroke-width: 2.0;" x1="1315.5" x2="1333.5" y1="634.6875" y2="616.6875"/><polygon fill="#A80036" points="363,650.8203,353,654.8203,363,658.8203,359,654.8203" style="stroke: #A80036; stroke-width: 1.0;"/><line style="stroke: #A80036; stroke-width: 1.0;" x1="357" x2="637" y1="654.8203" y2="654.8203"/><text fill="#000000" font-family="sans-serif" font-size="13" lengthAdjust="spacingAndGlyphs" textLength="207" x="369" y="649.7544">4B.1.3 Muestra datos del pedido</text><polygon fill="#A80036" points="330,679.9531,340,683.9531,330,687.9531,334,683.9531" style="stroke: #A80036; stroke-width: 1.0;"/><line style="stroke: #A80036; stroke-width: 1.0;" x1="34" x2="336" y1="683.9531" y2="683.9531"/><text fill="#000000" font-family="sans-serif" font-size="13" lengthAdjust="spacingAndGlyphs" textLength="132" x="41" y="678.8872">5. Confirmar compra</text><polygon fill="#A80036" points="330,709.0859,340,713.0859,330,717.0859,334,713.0859" style="stroke: #A80036; stroke-width: 1.0;"/><line style="stroke: #A80036; stroke-width: 1.0;" x1="34" x2="336" y1="713.0859" y2="713.0859"/><text fill="#000000" font-family="sans-serif" font-size="13" lengthAdjust="spacingAndGlyphs" textLength="183" x="41" y="708.02">6.Seleccionar modo de pago</text><polygon fill="#A80036" points="330,738.2188,340,742.2188,330,746.2188,334,742.2188" style="stroke: #A80036; stroke-width: 1.0;"/><line style="stroke: #A80036; stroke-width: 1.0;" x1="34" x2="336" y1="742.2188" y2="742.2188"/><text fill="#000000" font-family="sans-serif" font-size="13" lengthAdjust="spacingAndGlyphs" textLength="112" x="41" y="737.1528">7.Introducir datos</text><polygon fill="#A80036" points="1430,767.3516,1440,771.3516,1430,775.3516,1434,771.3516" style="stroke: #A80036; stroke-width: 1.0;"/><line style="stroke: #A80036; stroke-width: 1.0;" x1="352" x2="1436" y1="771.3516" y2="771.3516"/><text fill="#000000" font-family="sans-serif" font-size="13" lengthAdjust="spacingAndGlyphs" textLength="166" x="359" y="766.2856">7.1 Consulta datos cliente</text><polygon fill="#A80036" points="1706,796.4844,1716,800.4844,1706,804.4844,1710,800.4844" style="stroke: #A80036; stroke-width: 1.0;"/><line style="stroke: #A80036; stroke-width: 1.0;" x1="1452" x2="1712" y1="800.4844" y2="800.4844"/><text fill="#000000" font-family="sans-serif" font-size="13" lengthAdjust="spacingAndGlyphs" textLength="178" x="1459" y="795.4185">7.1.1 Consulta datos cliente</text><polygon fill="#A80036" points="1982,825.6172,1992,829.6172,1982,833.6172,1986,829.6172" style="stroke: #A80036; stroke-width: 1.0;"/><line style="stroke: #A80036; stroke-width: 1.0;" x1="1728" x2="1988" y1="829.6172" y2="829.6172"/><text fill="#000000" font-family="sans-serif" font-size="13" lengthAdjust="spacingAndGlyphs" textLength="178" x="1735" y="824.5513">7.1.2 Consulta datos cliente</text><polygon fill="#A80036" points="1739,854.75,1729,858.75,1739,862.75,1735,858.75" style="stroke: #A80036; stroke-width: 1.0;"/><line style="stroke: #A80036; stroke-width: 1.0; stroke-dasharray: 2.0,2.0;" x1="1733" x2="1993" y1="858.75" y2="858.75"/><text fill="#000000" font-family="sans-serif" font-size="13" lengthAdjust="spacingAndGlyphs" textLength="180" x="1745" y="853.6841">7.1.3 Confirma datos cliente</text><polygon fill="#A80036" points="1463,883.8828,1453,887.8828,1463,891.8828,1459,887.8828" style="stroke: #A80036; stroke-width: 1.0;"/><line style="stroke: #A80036; stroke-width: 1.0; stroke-dasharray: 2.0,2.0;" x1="1457" x2="1717" y1="887.8828" y2="887.8828"/><text fill="#000000" font-family="sans-serif" font-size="13" lengthAdjust="spacingAndGlyphs" textLength="180" x="1469" y="882.8169">7.1.4 Confirma datos cliente</text><polygon fill="#A80036" points="1706,913.0156,1716,917.0156,1706,921.0156,1710,917.0156" style="stroke: #A80036; stroke-width: 1.0;"/><line style="stroke: #A80036; stroke-width: 1.0;" x1="1452" x2="1712" y1="917.0156" y2="917.0156"/><text fill="#000000" font-family="sans-serif" font-size="13" lengthAdjust="spacingAndGlyphs" textLength="110" x="1459" y="911.9497">7.2 Realizar pago</text><polygon fill="#A80036" points="1982,942.1484,1992,946.1484,1982,950.1484,1986,946.1484" style="stroke: #A80036; stroke-width: 1.0;"/><line style="stroke: #A80036; stroke-width: 1.0;" x1="1728" x2="1988" y1="946.1484" y2="946.1484"/><text fill="#000000" font-family="sans-serif" font-size="13" lengthAdjust="spacingAndGlyphs" textLength="117" x="1735" y="941.0825">7.2.3 Realiza pago</text><polygon fill="#A80036" points="2248,971.2813,2258,975.2813,2248,979.2813,2252,975.2813" style="stroke: #A80036; stroke-width: 1.0;"/><line style="stroke: #A80036; stroke-width: 1.0;" x1="1994" x2="2254" y1="975.2813" y2="975.2813"/><text fill="#000000" font-family="sans-serif" font-size="13" lengthAdjust="spacingAndGlyphs" textLength="124" x="2001" y="970.2153">7.2.4 Registra pago</text><polygon fill="#A80036" points="2005,1000.4141,1995,1004.4141,2005,1008.4141,2001,1004.4141" style="stroke: #A80036; stroke-width: 1.0;"/><line style="stroke: #A80036; stroke-width: 1.0; stroke-dasharray: 2.0,2.0;" x1="1999" x2="2264" y1="1004.4141" y2="1004.4141"/><text fill="#000000" font-family="sans-serif" font-size="13" lengthAdjust="spacingAndGlyphs" textLength="242" x="2011" y="999.3481">7.2.5 Confirma pago y devuelve datos</text><line style="stroke: #A80036; stroke-width: 2.0;" x1="2256" x2="2274" y1="995.4141" y2="1013.4141"/><line style="stroke: #A80036; stroke-width: 2.0;" x1="2256" x2="2274" y1="1013.4141" y2="995.4141"/><polygon fill="#A80036" points="1739,1029.5469,1729,1033.5469,1739,1037.5469,1735,1033.5469" style="stroke: #A80036; stroke-width: 1.0;"/><line style="stroke: #A80036; stroke-width: 1.0; stroke-dasharray: 2.0,2.0;" x1="1733" x2="1993" y1="1033.5469" y2="1033.5469"/><text fill="#000000" font-family="sans-serif" font-size="13" lengthAdjust="spacingAndGlyphs" textLength="242" x="1745" y="1028.481">7.2.6 Confirma pago y devuelve datos</text><polygon fill="#A80036" points="1463,1058.6797,1453,1062.6797,1463,1066.6797,1459,1062.6797" style="stroke: #A80036; stroke-width: 1.0;"/><line style="stroke: #A80036; stroke-width: 1.0; stroke-dasharray: 2.0,2.0;" x1="1457" x2="1722" y1="1062.6797" y2="1062.6797"/><text fill="#000000" font-family="sans-serif" font-size="13" lengthAdjust="spacingAndGlyphs" textLength="242" x="1469" y="1057.6138">7.2.6 Confirma pago y devuelve datos</text><line style="stroke: #A80036; stroke-width: 2.0;" x1="1714" x2="1732" y1="1053.6797" y2="1071.6797"/><line style="stroke: #A80036; stroke-width: 2.0;" x1="1714" x2="1732" y1="1071.6797" y2="1053.6797"/><polygon fill="#A80036" points="659,1087.8125,649,1091.8125,659,1095.8125,655,1091.8125" style="stroke: #A80036; stroke-width: 1.0;"/><line style="stroke: #A80036; stroke-width: 1.0; stroke-dasharray: 2.0,2.0;" x1="653" x2="1446" y1="1091.8125" y2="1091.8125"/><text fill="#000000" font-family="sans-serif" font-size="13" lengthAdjust="spacingAndGlyphs" textLength="242" x="665" y="1086.7466">7.2.7 Confirma pago y devuelve datos</text><line style="stroke: #A80036; stroke-width: 2.0;" x1="1438" x2="1456" y1="1082.8125" y2="1100.8125"/><line style="stroke: #A80036; stroke-width: 2.0;" x1="1438" x2="1456" y1="1100.8125" y2="1082.8125"/><polygon fill="#A80036" points="911,1116.9453,921,1120.9453,911,1124.9453,915,1120.9453" style="stroke: #A80036; stroke-width: 1.0;"/><line style="stroke: #A80036; stroke-width: 1.0;" x1="648" x2="917" y1="1120.9453" y2="1120.9453"/><text fill="#000000" font-family="sans-serif" font-size="13" lengthAdjust="spacingAndGlyphs" textLength="251" x="655" y="1115.8794">7.3 Confirma productos como vendidos</text><line style="stroke: #A80036; stroke-width: 1.0; stroke-dasharray: 2.0,2.0;" x1="933" x2="975" y1="1150.0781" y2="1150.0781"/><line style="stroke: #A80036; stroke-width: 1.0; stroke-dasharray: 2.0,2.0;" x1="975" x2="975" y1="1150.0781" y2="1163.0781"/><line style="stroke: #A80036; stroke-width: 1.0; stroke-dasharray: 2.0,2.0;" x1="934" x2="975" y1="1163.0781" y2="1163.0781"/><polygon fill="#A80036" points="944,1159.0781,934,1163.0781,944,1167.0781,940,1163.0781" style="stroke: #A80036; stroke-width: 1.0;"/><text fill="#000000" font-family="sans-serif" font-size="13" lengthAdjust="spacingAndGlyphs" textLength="244" x="940" y="1145.0122">7.3.1 Marca productos como vendidos</text><line style="stroke: #A80036; stroke-width: 2.0;" x1="919" x2="937" y1="1154.0781" y2="1172.0781"/><line style="stroke: #A80036; stroke-width: 2.0;" x1="919" x2="937" y1="1172.0781" y2="1154.0781"/><polygon fill="#A80036" points="358,1188.2109,348,1192.2109,358,1196.2109,354,1192.2109" style="stroke: #A80036; stroke-width: 1.0;"/><line style="stroke: #A80036; stroke-width: 1.0; stroke-dasharray: 2.0,2.0;" x1="352" x2="642" y1="1192.2109" y2="1192.2109"/><text fill="#000000" font-family="sans-serif" font-size="13" lengthAdjust="spacingAndGlyphs" textLength="262" x="364" y="1187.145">7.4 Envía factura con datos de la compra</text><line style="stroke: #A80036; stroke-width: 2.0;" x1="634" x2="652" y1="1183.2109" y2="1201.2109"/><line style="stroke: #A80036; stroke-width: 2.0;" x1="634" x2="652" y1="1201.2109" y2="1183.2109"/><line style="stroke: #A80036; stroke-width: 2.0;" x1="338" x2="356" y1="1183.2109" y2="1201.2109"/><line style="stroke: #A80036; stroke-width: 2.0;" x1="338" x2="356" y1="1201.2109" y2="1183.2109"/><!--MD5=[f702b060841ef7a843f7c5cd3954bd05]
@startuml
actor cliente

ACTIVATE InterfazPedido

cliente -> InterfazPedido : 1. Realizar pedido

InterfazPedido -> ControladorPedido: 1.1 Iniciar pedido

ACTIVATE ControladorPedido

ControladorPedido -> ControladorProductos : 1.1.2 Consultar productos existentes

ACTIVATE ControladorProductos

ControladorProductos - -> ControladorPedido : 1.1.3 Listar Productos

cliente -> InterfazPedido : 2. Seleccionar Producto

InterfazPedido -> ControladorProductos : 2.1 Notifica selección del producto

ACTIVATE InfoProductos

ControladorProductos -> InfoProductos : 2.1.1 Consulta datos del producto

InfoProductos - ->  ControladorProductos : 2.1.2 Devuelve lista de productos

DESTROY InfoProductos

ControladorProductos - -> InterfazPedido : 2.1.3 Mostrar datos producto

cliente -> InterfazPedido : 3. Confirmar producto

InterfazPedido -> ControladorProductos : 3.1 Consultar si el producto sigue disponible

ControladorProductos - -> ControladorProductos : 3.1.2 Marca el producto como comprado

ACTIVATE InfoPedido

ControladorProductos -> InfoPedido :  3.2 Añadir producto al pedido

cliente -> InterfazPedido : 4.A Seguir comprando (vuelve al paso 1.1.2)

cliente -> InterfazPedido : 4.B Terminar de comprar

InterfazPedido -> ControladorPedido : 4B.1 Notifica el final de la compra

ControladorPedido -> InfoPedido : 4B.1.1 Consulta datos del pedido

InfoPedido - -> ControladorPedido : 4B.1.2 Devuelve info del pedido

DESTROY InfoPedido

ControladorPedido -> InterfazPedido : 4B.1.3 Muestra datos del pedido

cliente -> InterfazPedido : 5. Confirmar compra

cliente -> InterfazPedido : 6.Seleccionar modo de pago

cliente -> InterfazPedido : 7.Introducir datos

ACTIVATE ControladorPago

InterfazPedido -> ControladorPago : 7.1 Consulta datos cliente

ControladorPago -> InterfazBanco : 7.1.1 Consulta datos cliente

actor banco

ACTIVATE InterfazBanco

InterfazBanco -> banco : 7.1.2 Consulta datos cliente

banco - -> InterfazBanco : 7.1.3 Confirma datos cliente

InterfazBanco - -> ControladorPago : 7.1.4 Confirma datos cliente

ControladorPago -> InterfazBanco : 7.2 Realizar pago

InterfazBanco -> banco : 7.2.3 Realiza pago

ACTIVATE InfoPago

banco -> InfoPago : 7.2.4 Registra pago

InfoPago - -> banco : 7.2.5 Confirma pago y devuelve datos

DESTROY InfoPago

banco - -> InterfazBanco : 7.2.6 Confirma pago y devuelve datos

InterfazBanco - -> ControladorPago : 7.2.6 Confirma pago y devuelve datos

DESTROY InterfazBanco

ControladorPago - -> ControladorPedido : 7.2.7 Confirma pago y devuelve datos

DESTROY ControladorPago

ControladorPedido -> ControladorProductos : 7.3 Confirma productos como vendidos

ControladorProductos - -> ControladorProductos : 7.3.1 Marca productos como vendidos

DESTROY ControladorProductos

ControladorPedido - -> InterfazPedido : 7.4 Envía factura con datos de la compra

DESTROY ControladorPedido

DESTROY InterfazPedido
@enduml

PlantUML version 1.2019.12(Sun Nov 03 10:24:54 UTC 2019)
(GPL source distribution)
Java Runtime: OpenJDK Runtime Environment
JVM: OpenJDK 64-Bit Server VM
Java Version: 1.8.0_232-heroku-b09
Operating System: Linux
Default Encoding: UTF-8
Language: en
Country: US
--></g></svg>